<svg id="svg" xmlns="http://www.w3.org/2000/svg" xmlns:xlink="http://www.w3.org/1999/xlink" width="400" height="400.5602240896358" viewBox="0, 0, 400,400.5602240896358"><g id="svgg"><path id="path0" d="M155.742 46.847 C 119.590 49.013,96.630 58.993,87.964 76.308 C 84.981 82.267,84.925 82.836,86.163 94.482 L 87.244 104.650 80.683 111.288 C 71.451 120.631,69.815 126.877,71.617 145.908 L 72.198 152.040 68.645 155.806 C 58.493 166.568,56.545 183.663,64.178 195.005 C 65.263 196.619,65.952 198.109,65.709 198.318 C 65.465 198.527,63.754 199.842,61.905 201.240 C 50.935 209.537,47.359 218.222,50.098 229.918 C 54.716 249.637,70.772 253.771,121.289 248.249 C 129.608 247.339,138.364 246.437,140.747 246.244 L 145.079 245.893 144.823 247.456 C 144.682 248.316,144.285 251.725,143.939 255.031 C 143.358 260.597,143.030 261.678,139.516 269.623 C 119.564 314.728,118.152 345.263,135.234 362.208 C 142.690 369.605,149.220 371.399,156.705 368.109 C 160.846 366.289,160.611 367.414,161.325 345.938 C 162.237 318.508,162.235 318.524,165.964 310.768 C 172.184 297.832,175.653 293.592,198.837 270.588 C 218.166 251.410,219.870 249.483,230.548 234.736 C 259.726 194.442,271.793 186.472,303.922 186.277 C 331.076 186.111,336.889 181.538,343.417 155.207 C 350.034 128.517,350.683 99.525,344.986 85.154 C 334.312 58.230,318.853 47.858,291.877 49.521 C 288.950 49.701,280.378 50.258,272.829 50.757 C 255.800 51.884,236.978 51.577,222.969 49.943 C 201.449 47.434,170.071 45.989,155.742 46.847 " stroke="none" fill="#000000" fill-rule="evenodd"></path></g></svg>