<?xml version="1.0" encoding="iso-8859-1"?>
<!-- Generator: Adobe Illustrator 23.0.2, SVG Export Plug-In . SVG Version: 6.00 Build 0)  -->
<svg version="1.1" id="Layer_1" xmlns="http://www.w3.org/2000/svg" xmlns:xlink="http://www.w3.org/1999/xlink" x="0px" y="0px"
	 viewBox="0 0 25.885 23.764" style="enable-background:new 0 0 25.885 23.764;" xml:space="preserve">
<g id="key_2_">
	<g>
		<path d="M13.081,2.197c-2.035,2.035-2.652,4.947-1.86,7.517L0,20.935v1.414l1.414,1.414h1.415l0.707-0.707h1.413l1.415-1.414
			v-1.414L9.192,17.4l0.664,0.707l1.457-1.414l1.414,1.414l1.414-1.414v-2.828l0.106-0.107c2.913,1.93,6.874,1.611,9.439-0.953
			c2.93-2.93,2.93-7.678,0-10.607C20.759-0.732,16.011-0.732,13.081,2.197z M22.273,7.146c-0.977,0.977-2.559,0.977-3.534,0
			c-0.978-0.977-0.978-2.559-0.001-3.535c0.977-0.977,2.559-0.977,3.536,0C23.251,4.588,23.25,6.17,22.273,7.146z"/>
	</g>
</g>
</svg>
