<?xml version="1.0" encoding="UTF-8" standalone="no"?> <svg id="Glyph" xmlns="http://www.w3.org/2000/svg" viewBox="0 0 64 64"><title>1</title><path d="M56.19528,44.21265v5.08273a8.17613,8.17613,0,0,1-5.69179,7.84873A61.2899,61.2899,0,0,1,32,60a61.40187,61.40187,0,0,1-18.37367-2.816,8.251,8.251,0,0,1-5.82161-7.88865V44.21265a8.24918,8.24918,0,0,1,5.572-7.79882,45.68743,45.68743,0,0,0,6.34094-2.766,5.32351,5.32351,0,0,1,5.30239.23965,12.77656,12.77656,0,0,0,13.96,0,5.32358,5.32358,0,0,1,5.30239-.23962,46.21163,46.21163,0,0,0,6.34094,2.76605A8.23587,8.23587,0,0,1,56.19528,44.21265Z"/><path d="M20.6163,16.19283C19.45075,5.19273,33.4843-.08758,40.65762,7.71516a10.92489,10.92489,0,0,1,2.72608,8.47767l-.52927,4.80311c-.58912,5.39229-5.09267,11.174-10.85443,11.174s-10.26531-5.78169-10.85443-11.174Z"/></svg>