<?xml version="1.0" encoding="UTF-8" standalone="no"?> <svg xmlns="http://www.w3.org/2000/svg" viewBox="0 0 416.52 510.02"><defs><style>.cls-1{fill:#030202;}</style></defs><g id="Layer_2" data-name="Layer 2"><g id="rabbit"><circle class="cls-1" cx="268.26" cy="309.95" r="10"/><circle class="cls-1" cx="148.26" cy="309.95" r="10"/><path class="cls-1" d="M340.13,247.91C452.93,93.23,408.5,11.13,404.89,5a.43.43,0,0,0,0-.07c0-.08-.08-.14-.11-.19l-.24-.34a3.28,3.28,0,0,0-.2-.31c-.18-.24-.37-.48-.56-.7l-.13-.14c-.18-.19-.35-.37-.54-.55L403,2.64l-.11-.09a5.85,5.85,0,0,0-.54-.45l-.21-.17-.64-.43-.2-.12c-.22-.13-.45-.25-.69-.37l-.35-.16-.47-.19-.37-.14-.5-.15-.34-.09c-.25-.06-.5-.11-.76-.15l-.09,0a6.86,6.86,0,0,0-.9-.09h-.9l-.27,0L395,.07l-.29,0-.6.11-.31.07-.09,0c-41.16,10.58-77.52,35.13-108.06,73-25.19,31.2-41.09,65-50,87.82a29.41,29.41,0,0,1-54.85,0c-8.9-22.84-24.8-56.62-50-87.82C100.3,35.44,64,10.89,22.79.31l-.1,0L22.38.22,21.79.11l-.3,0-.63,0L20.6,0h-.9a9.57,9.57,0,0,0-1.77.26l-.28.08-.57.17-.32.12c-.18.07-.37.14-.55.23L15.93,1c-.26.13-.53.27-.79.43h0a8,8,0,0,0-.77.52l-.16.12c-.21.16-.4.32-.59.49l-.1.08-.06.07a8.07,8.07,0,0,0-.58.59l-.09.1a7.94,7.94,0,0,0-.58.72c-.06.08-.1.15-.15.23s-.19.27-.28.41L11.64,5h0C8.13,10.92-36.56,93,76.39,247.91c-6.18,9.43-15.34,23.73-24.77,39.52a141.41,141.41,0,0,0,30.61,181,234.67,234.67,0,0,0,67.68,39.64,9.79,9.79,0,0,0,2.13.54A146.67,146.67,0,0,0,171.92,510c8.33,0,17.89-.78,26.34-3.41V456l-35.32-18.29A10,10,0,1,1,172.13,420l36.13,18.71L244.38,420a10,10,0,1,1,9.2,17.76L218.26,456v50.6c8.45,2.63,18,3.41,26.33,3.41a146.86,146.86,0,0,0,19.89-1.37,9.7,9.7,0,0,0,2.12-.54,234.67,234.67,0,0,0,67.68-39.64,141.38,141.38,0,0,0,30.61-181C355.47,271.64,346.31,257.34,340.13,247.91ZM148.26,340a30,30,0,1,1,30-30A30,30,0,0,1,148.26,340Zm120,0a30,30,0,1,1,30-30A30,30,0,0,1,268.26,340Z"/><path class="cls-1" d="M212.92,441.09a6.32,6.32,0,0,1,.56.33A6.32,6.32,0,0,0,212.92,441.09Z"/><path class="cls-1" d="M218.2,448.85c0,.11,0,.22,0,.34C218.21,449.07,218.21,449,218.2,448.85Z"/><path class="cls-1" d="M198.26,449.86c0-.22,0-.44,0-.65C198.28,449.42,198.26,449.64,198.26,449.86Z"/><path class="cls-1" d="M218.22,449.19c0,.22,0,.45,0,.68C218.25,449.64,218.24,449.41,218.22,449.19Z"/><path class="cls-1" d="M203,441.43c.19-.12.38-.24.58-.35C203.4,441.19,203.21,441.31,203,441.43Z"/><path class="cls-1" d="M198.29,449.21l0-.36Z"/></g></g></svg>