<?xml version="1.0" encoding="iso-8859-1"?>
<!-- Generator: Adobe Illustrator 23.0.2, SVG Export Plug-In . SVG Version: 6.00 Build 0)  -->
<svg version="1.1" id="Layer_1" xmlns="http://www.w3.org/2000/svg" xmlns:xlink="http://www.w3.org/1999/xlink" x="0px" y="0px"
	 viewBox="0 0 25.971 25.971" style="enable-background:new 0 0 25.971 25.971;" xml:space="preserve">
<g id="search_2_">
	<g>
		<path d="M15.364,2.637c-3.515-3.516-9.213-3.516-12.727,0c-3.516,3.516-3.516,9.213,0,12.729c3.515,3.514,9.213,3.514,12.727,0
			C18.879,11.85,18.879,6.152,15.364,2.637z M14.304,14.305c-2.93,2.928-7.678,2.928-10.606,0c-2.93-2.93-2.93-7.678,0-10.608
			c2.929-2.93,7.677-2.93,10.606,0C17.232,6.627,17.232,11.375,14.304,14.305z"/>
	</g>
	<rect x="13.779" y="15.779" transform="matrix(0.7072 -0.707 0.707 0.7072 -6.9504 16.776)" width="6" height="2"/>
	<rect x="20.728" y="16.729" transform="matrix(0.7071 -0.7071 0.7071 0.7071 -9.0004 21.7282)" width="2" height="10"/>
</g>
</svg>
