<svg id="svg" xmlns="http://www.w3.org/2000/svg" xmlns:xlink="http://www.w3.org/1999/xlink" width="400" height="352.2388059701492" viewBox="0, 0, 400,352.2388059701492"><g id="svgg"><path id="path0" d="M195.730 1.428 C 188.998 2.665,190.053 0.954,95.355 164.179 C -9.067 344.166,-4.765 335.269,6.578 347.761 L 10.644 352.239 200.995 352.239 L 391.346 352.239 395.673 347.633 C 406.571 336.033,408.648 340.326,308.318 167.164 C 204.666 -11.732,211.623 -1.491,195.730 1.428 M225.942 144.776 C 225.203 162.015,222.872 190.000,220.761 206.965 C 218.650 223.930,216.921 238.483,216.919 239.303 C 216.917 240.124,209.751 240.796,200.995 240.796 C 192.239 240.796,185.073 240.124,185.071 239.303 C 185.069 238.483,183.340 223.930,181.229 206.965 C 179.118 190.000,176.787 162.015,176.048 144.776 L 174.705 113.433 200.995 113.433 L 227.285 113.433 225.942 144.776 M214.548 272.688 C 237.021 286.389,221.538 323.995,196.056 317.600 C 167.392 310.406,171.605 268.672,200.995 268.672 C 204.826 268.672,210.925 270.479,214.548 272.688 " stroke="none" fill="#000000" fill-rule="evenodd"></path></g></svg>